<svg width="179" height="57" viewBox="0 0 179 57" fill="none" xmlns="http://www.w3.org/2000/svg">
<path d="M0.15332 47.4629C0.130534 46.7793 0.119141 46.0957 0.119141 45.4121C0.119141 43.2702 0.233073 41.1169 0.460938 38.9521C0.734375 36.0811 0.916667 33.2555 1.00781 30.4756C1.09896 27.2171 1.23568 23.8333 1.41797 20.3242C1.5319 18.4102 1.58887 16.5189 1.58887 14.6504C1.58887 13.1237 1.55469 11.6084 1.48633 10.1045C1.71419 9.5804 2.01611 9.22721 2.39209 9.04492C2.76807 8.86263 3.24089 8.77148 3.81055 8.77148C4.08398 8.77148 4.37451 8.79427 4.68213 8.83984C4.98975 8.88542 5.25749 8.99935 5.48535 9.18164C5.80436 9.22721 6.19743 9.27279 6.66455 9.31836C7.13167 9.36393 7.49056 9.50065 7.74121 9.72852C7.83236 9.86523 8.06592 10.3324 8.44189 11.1299C8.81787 11.9274 9.26221 12.8958 9.7749 14.0352C10.2876 15.1745 10.8231 16.4106 11.3813 17.7437C11.9396 19.0767 12.4751 20.3413 12.9878 21.5376C13.5005 22.7339 13.9448 23.7878 14.3208 24.6992C14.6968 25.6107 14.9303 26.1803 15.0215 26.4082C17.1634 22.5345 19.2598 18.5526 21.3105 14.4624C23.3613 10.3722 25.6058 6.51562 28.0439 2.89258C28.2718 2.57357 28.6649 2.34001 29.2231 2.19189C29.7814 2.04378 30.2428 1.96973 30.6074 1.96973C31.5872 1.96973 32.2993 2.20329 32.7437 2.67041C33.188 3.13753 33.4785 3.73568 33.6152 4.46484C33.7064 4.92057 33.7633 5.41048 33.7861 5.93457C33.8089 6.20801 33.7975 6.49284 33.752 6.78906C33.6608 7.63216 33.6152 8.42969 33.6152 9.18164C33.6152 14.4909 33.4329 19.7603 33.0684 24.9897C32.7038 30.2192 32.3734 35.5 32.0771 40.832C32.0316 41.9258 32.0088 43.0651 32.0088 44.25C32.0088 45.4349 32.0316 46.6654 32.0771 47.9414C32.0999 48.3971 32.1113 48.8415 32.1113 49.2744C32.1113 51.2796 31.9404 53.1481 31.5986 54.8799C31.2796 55.404 30.7555 55.7344 30.0264 55.8711C29.2972 56.0078 28.682 56.0762 28.1807 56.0762C27.1097 56.0762 26.0843 55.8255 25.1045 55.3242L24.7285 54.8799L24.5918 54.333C24.5918 54.333 24.569 54.1507 24.5234 53.7861C24.5234 50.4821 24.6431 47.1553 24.8823 43.8057C25.1216 40.4561 25.3893 37.1121 25.6855 33.7739C25.9818 30.4357 26.2951 27.1032 26.6255 23.7764C26.9559 20.4495 27.235 17.1227 27.4629 13.7959C26.1185 16.029 24.814 18.3019 23.5493 20.6147C22.2847 22.9276 21.0941 25.2803 19.9775 27.6729C19.5674 28.6071 19.1743 29.6097 18.7983 30.6807C18.4224 31.7516 17.9723 32.7087 17.4482 33.5518C17.1748 33.9619 16.7134 34.2126 16.064 34.3037C15.4146 34.3949 14.8506 34.4404 14.3721 34.4404C13.9163 34.4404 13.4435 34.3607 12.9536 34.2012C12.4637 34.0417 12.1276 33.6999 11.9453 33.1758C11.1022 30.6009 10.2021 28.083 9.24512 25.6221C8.28809 23.1611 7.31966 20.666 6.33984 18.1367C6.33984 19.8229 6.37402 22.0047 6.44238 24.6821C6.51074 27.3595 6.54492 30.1338 6.54492 33.0049C6.54492 35.876 6.49935 38.6217 6.4082 41.2422C6.31706 43.8626 6.10059 45.9362 5.75879 47.4629C5.66764 48.0326 5.29736 48.3857 4.64795 48.5225C3.99854 48.6592 3.43457 48.7275 2.95605 48.7275C2.59147 48.7275 2.24398 48.7048 1.91357 48.6592C1.58317 48.6136 1.25846 48.5225 0.939453 48.3857L0.15332 47.4629ZM40.7475 49.3086C40.7931 48.3516 40.8159 47.4173 40.8159 46.5059C40.8159 43.2018 40.9355 39.9092 41.1748 36.6279C41.414 33.3467 41.5792 30.054 41.6704 26.75C41.8071 22.9674 41.9324 19.2191 42.0463 15.5049C42.1603 11.7907 42.3881 8.05371 42.7299 4.29395C42.8211 3.3597 43.0888 2.75016 43.5332 2.46533C43.9775 2.1805 44.644 2.03809 45.5327 2.03809C45.9428 2.03809 46.4897 2.11784 47.1733 2.27734C47.8569 2.43685 48.1987 2.82422 48.1987 3.43945C48.5177 3.48503 48.8367 3.50781 49.1557 3.50781C49.6342 3.50781 50.1241 3.46224 50.6254 3.37109C51.4458 3.23438 52.2832 3.08057 53.1376 2.90967C53.9921 2.73877 54.8409 2.57357 55.684 2.41406C56.5271 2.25456 57.3361 2.1748 58.1108 2.1748C58.2931 2.1748 58.5494 2.1862 58.8798 2.20898C59.2102 2.23177 59.5406 2.30013 59.871 2.41406C60.2015 2.52799 60.4806 2.67041 60.7085 2.84131C60.9363 3.01221 61.0502 3.23438 61.0502 3.50781C61.0502 3.78125 60.7825 4.0262 60.247 4.24268C59.7115 4.45915 59.0109 4.64714 58.145 4.80664C57.2791 4.96615 56.3448 5.10286 55.3422 5.2168C54.3396 5.33073 53.3598 5.42757 52.4028 5.50732C51.4458 5.58708 50.597 5.64974 49.8564 5.69531C49.1158 5.74089 48.5861 5.76367 48.267 5.76367L48.1987 18.6152L48.267 25.0068C48.9734 25.0068 50.033 24.984 51.4458 24.9385C52.0154 24.9157 52.5851 24.9043 53.1547 24.9043C54.0206 24.9043 54.9093 24.9271 55.8208 24.9727C57.3247 25.041 58.6805 25.1777 59.8881 25.3828C61.0958 25.5879 61.8592 25.9525 62.1782 26.4766C62.1782 26.7956 62.013 27.0519 61.6826 27.2456C61.3522 27.4393 60.9819 27.5817 60.5717 27.6729C60.1616 27.764 59.7457 27.821 59.3242 27.8438C58.9026 27.8665 58.6007 27.8779 58.4184 27.8779C56.7322 27.8779 55.0346 27.8438 53.3256 27.7754C51.6167 27.707 49.9305 27.5703 48.267 27.3652C48.267 30.168 48.193 32.9479 48.0449 35.7051C47.8968 38.4622 47.8227 41.2422 47.8227 44.0449C47.8227 45.2526 47.8341 46.4432 47.8569 47.6167C47.8797 48.7902 48.0164 49.958 48.267 51.1201C48.8823 51.0745 49.5488 51.0176 50.2666 50.9492C50.9843 50.8809 51.7135 50.7954 52.4541 50.6929C53.1946 50.5903 53.9067 50.5049 54.5903 50.4365C55.2739 50.3682 55.8663 50.334 56.3676 50.334C56.6411 50.334 57.0113 50.3682 57.4785 50.4365C57.9456 50.5049 58.4241 50.6188 58.914 50.7783C59.4039 50.9378 59.8255 51.1372 60.1787 51.3765C60.5319 51.6157 60.7085 51.8949 60.7085 52.2139C60.7085 52.5785 60.3724 52.9032 59.7001 53.188C59.0279 53.4728 58.1678 53.7007 57.1196 53.8716C56.0714 54.0425 54.9264 54.1621 53.6845 54.2305C52.4427 54.2988 51.2407 54.3444 50.0786 54.3672C48.9165 54.39 47.8683 54.4014 46.934 54.4014H44.9516C43.6984 54.4014 42.7812 54.1678 42.2001 53.7007C41.6191 53.2336 41.2146 52.624 40.9868 51.8721C40.8045 51.2568 40.7247 50.5618 40.7475 49.7871V49.3086ZM69.1737 49.3086C69.2193 48.3516 69.2421 47.4173 69.2421 46.5059C69.2421 43.2018 69.3617 39.9092 69.601 36.6279C69.8402 33.3467 70.0054 30.054 70.0966 26.75C70.2333 22.9674 70.3586 19.2191 70.4726 15.5049C70.5865 11.7907 70.8144 8.05371 71.1562 4.29395C71.2473 3.3597 71.515 2.75016 71.9594 2.46533C72.4037 2.1805 73.0702 2.03809 73.9589 2.03809C74.369 2.03809 74.9159 2.11784 75.5995 2.27734C76.2831 2.43685 76.6249 2.82422 76.6249 3.43945C76.9439 3.48503 77.2629 3.50781 77.5819 3.50781C78.0605 3.50781 78.5504 3.46224 79.0517 3.37109C79.872 3.23438 80.7094 3.08057 81.5639 2.90967C82.4184 2.73877 83.2672 2.57357 84.1103 2.41406C84.9534 2.25456 85.7623 2.1748 86.537 2.1748C86.7193 2.1748 86.9757 2.1862 87.3061 2.20898C87.6365 2.23177 87.9669 2.30013 88.2973 2.41406C88.6277 2.52799 88.9068 2.67041 89.1347 2.84131C89.3625 3.01221 89.4765 3.23438 89.4765 3.50781C89.4765 3.78125 89.2087 4.0262 88.6732 4.24268C88.1378 4.45915 87.4371 4.64714 86.5712 4.80664C85.7053 4.96615 84.7711 5.10286 83.7685 5.2168C82.7659 5.33073 81.786 5.42757 80.829 5.50732C79.872 5.58708 79.0232 5.64974 78.2826 5.69531C77.5421 5.74089 77.0123 5.76367 76.6933 5.76367L76.6249 18.6152L76.6933 25.0068C77.3996 25.0068 78.4592 24.984 79.872 24.9385C80.4416 24.9157 81.0113 24.9043 81.581 24.9043C82.4468 24.9043 83.3355 24.9271 84.247 24.9727C85.7509 25.041 87.1067 25.1777 88.3144 25.3828C89.522 25.5879 90.2854 25.9525 90.6044 26.4766C90.6044 26.7956 90.4392 27.0519 90.1088 27.2456C89.7784 27.4393 89.4081 27.5817 88.998 27.6729C88.5878 27.764 88.1719 27.821 87.7504 27.8438C87.3288 27.8665 87.0269 27.8779 86.8446 27.8779C85.1584 27.8779 83.4608 27.8438 81.7519 27.7754C80.0429 27.707 78.3567 27.5703 76.6933 27.3652C76.6933 30.168 76.6192 32.9479 76.4711 35.7051C76.323 38.4622 76.2489 41.2422 76.2489 44.0449C76.2489 45.2526 76.2603 46.4432 76.2831 47.6167C76.3059 48.7902 76.4426 49.958 76.6933 51.1201C77.3085 51.0745 77.975 51.0176 78.6928 50.9492C79.4106 50.8809 80.1397 50.7954 80.8803 50.6929C81.6208 50.5903 82.3329 50.5049 83.0165 50.4365C83.7001 50.3682 84.2926 50.334 84.7939 50.334C85.0673 50.334 85.4376 50.3682 85.9047 50.4365C86.3718 50.5049 86.8503 50.6188 87.3402 50.7783C87.8301 50.9378 88.2517 51.1372 88.6049 51.3765C88.9581 51.6157 89.1347 51.8949 89.1347 52.2139C89.1347 52.5785 88.7986 52.9032 88.1264 53.188C87.4542 53.4728 86.594 53.7007 85.5458 53.8716C84.4976 54.0425 83.3526 54.1621 82.1107 54.2305C80.8689 54.2988 79.6669 54.3444 78.5048 54.3672C77.3427 54.39 76.2945 54.4014 75.3603 54.4014H73.3778C72.1246 54.4014 71.2074 54.1678 70.6264 53.7007C70.0453 53.2336 69.6409 52.624 69.413 51.8721C69.2307 51.2568 69.151 50.5618 69.1737 49.7871V49.3086ZM95.515 4.3623C95.515 4.04329 95.7372 3.79834 96.1815 3.62744C96.6258 3.45654 96.9164 3.37109 97.0531 3.37109L98.3177 3.16602C99.1608 3.0293 100.015 2.90967 100.881 2.80713C101.747 2.70459 102.59 2.60775 103.41 2.5166C106.304 2.15202 109.198 1.79313 112.092 1.43994C114.986 1.08675 117.903 0.910156 120.842 0.910156C121.07 0.910156 121.383 0.921549 121.782 0.944336C122.181 0.967122 122.58 1.02979 122.978 1.13232C123.377 1.23486 123.719 1.37728 124.004 1.55957C124.289 1.74186 124.431 1.99251 124.431 2.31152C124.431 2.53939 124.323 2.73877 124.106 2.90967C123.89 3.08057 123.633 3.21159 123.337 3.30273C123.041 3.39388 122.739 3.45085 122.431 3.47363C122.124 3.49642 121.879 3.50781 121.697 3.50781H121.098C121.098 3.50781 120.899 3.46224 120.5 3.37109C119.293 3.37109 118.102 3.42806 116.929 3.54199C115.755 3.65592 114.564 3.75846 113.357 3.84961C113.676 4.21419 113.847 4.72689 113.869 5.3877C113.892 6.0485 113.915 6.61816 113.938 7.09668C113.938 15.1631 113.995 23.1839 114.109 31.1592C114.223 39.1344 114.325 47.1895 114.416 55.3242V55.3926C113.664 56.0534 113.021 56.4749 112.485 56.6572C111.95 56.8395 111.409 56.9307 110.862 56.9307C110.338 56.9307 109.808 56.8338 109.272 56.6401C108.737 56.4465 108.093 56.0306 107.341 55.3926V55.3242L107.615 28.4932C107.615 26.7158 107.592 24.7562 107.546 22.6143C107.501 20.4723 107.478 18.3019 107.478 16.103C107.478 13.9041 107.512 11.7793 107.58 9.72852C107.649 7.67773 107.831 5.889 108.127 4.3623C106.783 4.49902 105.359 4.7041 103.855 4.97754C102.556 5.2054 101.314 5.31934 100.129 5.31934H99.514C99.4229 5.31934 99.1551 5.33073 98.7108 5.35352C98.2664 5.3763 97.8107 5.36491 97.3436 5.31934C96.8765 5.27376 96.4549 5.18262 96.0789 5.0459C95.703 4.90918 95.515 4.68132 95.515 4.3623Z" fill="white"/>
<path d="M128.655 15.3789C128.655 15.0423 128.664 14.7093 128.682 14.3799C128.7 14.0505 128.73 13.7246 128.773 13.4023C128.802 13.2376 128.929 13.1195 129.155 13.0479C129.38 12.9762 129.568 12.9404 129.719 12.9404L129.977 12.9619C130.184 12.9906 130.394 12.9762 130.605 12.9189C130.816 12.8617 131.026 12.833 131.233 12.833C131.72 12.833 132.265 12.8867 132.866 12.9941C133.468 13.1016 134.032 13.2842 134.558 13.542C135.084 13.7998 135.527 14.1382 135.885 14.5571C136.243 14.9761 136.422 15.4935 136.422 16.1094C136.422 16.7253 136.236 17.3 135.863 17.8335C135.491 18.367 135.022 18.8361 134.456 19.2407C133.89 19.6453 133.282 19.9622 132.63 20.1914C131.978 20.4206 131.38 20.5352 130.836 20.5352C130.893 21.9173 130.974 23.2887 131.078 24.6494C131.181 26.0101 131.359 27.3708 131.609 28.7314L131.631 28.8711C131.631 28.9714 131.586 29.0537 131.497 29.1182C131.407 29.1826 131.301 29.2345 131.18 29.2739C131.058 29.3133 130.934 29.3402 130.809 29.3545C130.684 29.3688 130.582 29.376 130.503 29.376C130.324 29.376 130.107 29.342 129.853 29.2739C129.599 29.2059 129.443 29.0716 129.386 28.8711C129.221 28.2409 129.092 27.548 128.999 26.7925C128.906 26.0369 128.838 25.2474 128.795 24.4238C128.752 23.6003 128.722 22.7713 128.704 21.937C128.686 21.1027 128.677 20.2881 128.677 19.4932V17.0762C128.677 16.8112 128.673 16.5355 128.666 16.249C128.659 15.9626 128.655 15.6725 128.655 15.3789ZM130.686 13.6387C130.686 14.6198 130.696 15.5991 130.718 16.5767C130.739 17.5542 130.764 18.5335 130.793 19.5146C131.215 19.4287 131.647 19.2765 132.087 19.0581C132.528 18.8397 132.925 18.5801 133.28 18.2793C133.634 17.9785 133.921 17.6366 134.139 17.2534C134.358 16.8703 134.467 16.4674 134.467 16.0449C134.467 15.6654 134.372 15.3252 134.182 15.0244C133.992 14.7236 133.747 14.4658 133.446 14.251C133.153 14.0433 132.82 13.8822 132.447 13.7676C132.118 13.6673 131.796 13.6172 131.48 13.6172H131.362L130.686 13.6387ZM138.62 25.4336C138.62 24.9323 138.676 24.3415 138.787 23.6611C138.898 22.9808 139.086 22.3363 139.351 21.7275C139.616 21.1188 139.965 20.6014 140.398 20.1753C140.832 19.7492 141.378 19.5361 142.036 19.5361C142.652 19.5361 143.114 19.7134 143.422 20.0679C143.73 20.4224 143.884 20.9004 143.884 21.502C143.884 21.8958 143.811 22.3273 143.664 22.7964C143.517 23.2655 143.308 23.7095 143.036 24.1284C142.763 24.5474 142.441 24.8965 142.069 25.1758C141.696 25.4551 141.281 25.5947 140.823 25.5947L140.543 25.5732C140.543 25.7666 140.572 26.0262 140.629 26.3521C140.687 26.6779 140.771 27.002 140.882 27.3242C140.993 27.6465 141.136 27.9294 141.311 28.1729C141.487 28.4163 141.7 28.5381 141.951 28.5381C142.316 28.5381 142.667 28.3913 143.003 28.0977C143.34 27.804 143.659 27.4782 143.959 27.1201C144.26 26.762 144.539 26.4362 144.797 26.1426C145.055 25.849 145.291 25.7021 145.506 25.7021C145.621 25.7021 145.739 25.7201 145.861 25.7559C145.982 25.7917 146.05 25.8919 146.065 26.0566C146.065 26.1569 146.038 26.2393 145.984 26.3037C145.931 26.3682 145.882 26.4398 145.839 26.5186C145.617 26.8981 145.376 27.2598 145.114 27.6035C144.853 27.9473 144.557 28.2588 144.228 28.5381C143.898 28.8174 143.539 29.0376 143.148 29.1987C142.758 29.3599 142.327 29.4404 141.854 29.4404C141.238 29.4404 140.726 29.3312 140.318 29.1128C139.91 28.8944 139.58 28.6007 139.329 28.2319C139.079 27.8631 138.898 27.437 138.787 26.9536C138.676 26.4702 138.62 25.9635 138.62 25.4336ZM140.543 24.6172L140.844 24.8857C140.987 25.0146 141.131 25.0433 141.274 24.9717C141.417 24.9001 141.546 24.7694 141.661 24.5796C141.775 24.3898 141.881 24.1553 141.977 23.876C142.074 23.5967 142.16 23.3102 142.235 23.0166C142.31 22.723 142.366 22.4365 142.402 22.1572C142.438 21.8779 142.455 21.6452 142.455 21.459V21.0938C142.455 21.0938 142.445 20.9648 142.423 20.707C142.402 20.4492 142.364 20.3472 142.31 20.4009C142.257 20.4546 142.173 20.4027 142.058 20.2451C142.022 20.238 141.99 20.2344 141.961 20.2344C141.718 20.2344 141.51 20.3883 141.338 20.6963C141.152 21.04 141.002 21.4572 140.887 21.9478C140.773 22.4383 140.69 22.9414 140.64 23.457C140.59 23.9727 140.558 24.3594 140.543 24.6172ZM147.383 25.1973C147.383 24.7891 147.434 24.3683 147.538 23.9351C147.642 23.5018 147.807 23.1115 148.032 22.7642C148.258 22.4168 148.543 22.134 148.886 21.9155C149.23 21.6971 149.646 21.5879 150.133 21.5879C150.498 21.5879 150.883 21.6506 151.287 21.7759C151.692 21.9012 152.063 22.0802 152.399 22.313C152.736 22.5457 153.01 22.8304 153.221 23.167C153.432 23.5036 153.538 23.8796 153.538 24.2949C153.538 24.7962 153.447 25.2725 153.264 25.7236C153.081 26.1748 152.825 26.5776 152.496 26.9321C152.166 27.2866 151.781 27.5659 151.341 27.77C150.901 27.9741 150.423 28.0762 149.907 28.0762C149.484 28.0762 149.116 27.9992 148.801 27.8452C148.485 27.6912 148.222 27.4854 148.011 27.2275C147.8 26.9697 147.642 26.6654 147.538 26.3145C147.434 25.9635 147.383 25.5911 147.383 25.1973ZM148.962 25.1758C148.962 25.3047 148.981 25.4945 149.021 25.7451C149.06 25.9958 149.119 26.241 149.198 26.481C149.277 26.7209 149.379 26.9285 149.504 27.104C149.629 27.2795 149.782 27.36 149.961 27.3457C150.34 27.3027 150.654 27.1792 150.901 26.9751C151.148 26.771 151.348 26.5221 151.502 26.2285C151.656 25.9349 151.764 25.6162 151.824 25.2725C151.885 24.9287 151.916 24.6029 151.916 24.2949C151.916 23.901 151.839 23.5716 151.685 23.3066C151.531 23.0417 151.278 22.8268 150.927 22.6621C150.927 22.6764 150.935 22.6836 150.949 22.6836C150.963 22.6836 150.97 22.6764 150.97 22.6621L150.702 22.5977C150.63 22.569 150.543 22.5368 150.439 22.501C150.335 22.4652 150.233 22.3864 150.133 22.2646C149.853 22.3649 149.637 22.4938 149.483 22.6514C149.329 22.8089 149.212 23.0005 149.134 23.2261C149.055 23.4517 149.006 23.722 148.989 24.0371C148.971 24.3522 148.962 24.7318 148.962 25.1758ZM155.522 21.1045C155.522 20.7679 155.588 20.519 155.72 20.3579C155.853 20.1968 156.095 20.1162 156.445 20.1162C156.653 20.1162 156.848 20.1592 157.031 20.2451C157.214 20.3311 157.305 20.5137 157.305 20.793C157.333 21.2012 157.348 21.6291 157.348 22.0767C157.348 22.5243 157.387 22.9486 157.466 23.3496C157.645 23.056 157.847 22.7624 158.073 22.4688C158.298 22.1751 158.547 21.9137 158.819 21.6846C159.092 21.4554 159.389 21.271 159.711 21.1313C160.033 20.9917 160.384 20.9219 160.764 20.9219C161.279 20.9219 161.716 21.0293 162.074 21.2441C162.432 21.459 162.728 21.7383 162.961 22.082C163.193 22.4258 163.362 22.8143 163.465 23.2476C163.569 23.6808 163.621 24.1159 163.621 24.5527C163.621 25.2259 163.519 25.7756 163.315 26.2017C163.111 26.6278 162.841 26.9626 162.504 27.2061C162.167 27.4495 161.786 27.6143 161.36 27.7002C160.934 27.7861 160.506 27.8291 160.076 27.8291C159.697 27.8291 159.342 27.7557 159.013 27.6089C158.683 27.4621 158.454 27.1846 158.325 26.7764C158.325 26.6618 158.409 26.5902 158.578 26.5615C158.746 26.5329 158.866 26.5186 158.938 26.5186C159.174 26.5186 159.349 26.583 159.464 26.7119C159.55 26.8122 159.645 26.9142 159.749 27.0181C159.852 27.1219 159.962 27.1738 160.076 27.1738C160.298 27.1738 160.531 27.1112 160.775 26.9858C161.018 26.8605 161.242 26.6958 161.446 26.4917C161.65 26.2876 161.822 26.0459 161.962 25.7666C162.101 25.4873 162.171 25.2008 162.171 24.9072C162.171 24.6566 162.15 24.3451 162.107 23.9727C162.064 23.6003 161.99 23.2422 161.886 22.8984C161.783 22.5547 161.639 22.2575 161.457 22.0068C161.274 21.7562 161.043 21.6309 160.764 21.6309C160.341 21.6309 159.96 21.8242 159.62 22.2109C159.28 22.5977 158.997 23.0632 158.771 23.6074C158.546 24.1517 158.37 24.7174 158.245 25.3047C158.119 25.8919 158.057 26.3825 158.057 26.7764C158.057 27.1702 158.082 27.668 158.132 28.2695C158.182 28.8711 158.234 29.4959 158.288 30.144C158.341 30.7922 158.393 31.417 158.443 32.0186C158.494 32.6201 158.519 33.1178 158.519 33.5117C158.519 33.612 158.477 33.6925 158.395 33.7534C158.313 33.8143 158.214 33.8626 158.1 33.8984C157.985 33.9342 157.869 33.9557 157.751 33.9629C157.632 33.9701 157.545 33.9736 157.487 33.9736C157.294 33.9736 157.092 33.9521 156.88 33.9092C156.669 33.8662 156.524 33.7337 156.445 33.5117C156.345 33.1608 156.252 32.6613 156.166 32.0132C156.08 31.3651 156.003 30.6489 155.935 29.8647C155.867 29.0806 155.808 28.257 155.758 27.394C155.708 26.5311 155.665 25.6986 155.629 24.8965C155.593 24.0944 155.566 23.3604 155.548 22.6943C155.531 22.0283 155.522 21.4984 155.522 21.1045ZM165.82 28.8066C165.82 28.599 165.829 28.3805 165.847 28.1514C165.865 27.9222 165.881 27.7074 165.895 27.5068L165.959 25.8955C166.031 24.6064 166.119 23.3389 166.223 22.0928C166.326 20.8467 166.414 19.5863 166.486 18.3115C166.529 17.6097 166.561 16.9204 166.582 16.2437C166.604 15.5669 166.636 14.8776 166.679 14.1758C166.651 14.1185 166.636 14.0791 166.636 14.0576C166.636 13.9574 166.674 13.8786 166.749 13.8213C166.824 13.764 166.912 13.7157 167.012 13.6763C167.112 13.6369 167.218 13.61 167.329 13.5957C167.44 13.5814 167.524 13.5742 167.582 13.5742H167.829C168.051 13.6029 168.212 13.6727 168.312 13.7837C168.412 13.8947 168.477 14.0272 168.505 14.1812C168.534 14.3351 168.541 14.4998 168.527 14.6753C168.513 14.8507 168.505 15.0137 168.505 15.1641C168.505 16.2025 168.48 17.2606 168.43 18.3384C168.38 19.4162 168.323 20.4976 168.258 21.5825C168.194 22.6675 168.135 23.7524 168.081 24.8374C168.027 25.9224 168 26.9948 168 28.0547V28.8066C168 29.1432 167.906 29.3652 167.716 29.4727C167.526 29.5801 167.263 29.6338 166.926 29.6338C166.633 29.6338 166.375 29.5693 166.153 29.4404C165.931 29.3115 165.82 29.1003 165.82 28.8066ZM170.747 25.4336C170.747 24.9323 170.802 24.3415 170.913 23.6611C171.024 22.9808 171.212 22.3363 171.477 21.7275C171.742 21.1188 172.091 20.6014 172.525 20.1753C172.958 19.7492 173.504 19.5361 174.163 19.5361C174.779 19.5361 175.241 19.7134 175.549 20.0679C175.857 20.4224 176.011 20.9004 176.011 21.502C176.011 21.8958 175.937 22.3273 175.79 22.7964C175.644 23.2655 175.434 23.7095 175.162 24.1284C174.89 24.5474 174.568 24.8965 174.195 25.1758C173.823 25.4551 173.407 25.5947 172.949 25.5947L172.67 25.5732C172.67 25.7666 172.698 26.0262 172.756 26.3521C172.813 26.6779 172.897 27.002 173.008 27.3242C173.119 27.6465 173.262 27.9294 173.438 28.1729C173.613 28.4163 173.826 28.5381 174.077 28.5381C174.442 28.5381 174.793 28.3913 175.13 28.0977C175.466 27.804 175.785 27.4782 176.086 27.1201C176.387 26.762 176.666 26.4362 176.924 26.1426C177.181 25.849 177.418 25.7021 177.633 25.7021C177.747 25.7021 177.865 25.7201 177.987 25.7559C178.109 25.7917 178.177 25.8919 178.191 26.0566C178.191 26.1569 178.164 26.2393 178.111 26.3037C178.057 26.3682 178.009 26.4398 177.966 26.5186C177.744 26.8981 177.502 27.2598 177.241 27.6035C176.979 27.9473 176.684 28.2588 176.354 28.5381C176.025 28.8174 175.665 29.0376 175.275 29.1987C174.884 29.3599 174.453 29.4404 173.98 29.4404C173.364 29.4404 172.852 29.3312 172.444 29.1128C172.036 28.8944 171.707 28.6007 171.456 28.2319C171.205 27.8631 171.024 27.437 170.913 26.9536C170.802 26.4702 170.747 25.9635 170.747 25.4336ZM172.67 24.6172L172.971 24.8857C173.114 25.0146 173.257 25.0433 173.4 24.9717C173.543 24.9001 173.672 24.7694 173.787 24.5796C173.902 24.3898 174.007 24.1553 174.104 23.876C174.201 23.5967 174.286 23.3102 174.362 23.0166C174.437 22.723 174.492 22.4365 174.528 22.1572C174.564 21.8779 174.582 21.6452 174.582 21.459V21.0938C174.582 21.0938 174.571 20.9648 174.55 20.707C174.528 20.4492 174.491 20.3472 174.437 20.4009C174.383 20.4546 174.299 20.4027 174.184 20.2451C174.149 20.238 174.116 20.2344 174.088 20.2344C173.844 20.2344 173.637 20.3883 173.465 20.6963C173.278 21.04 173.128 21.4572 173.014 21.9478C172.899 22.4383 172.817 22.9414 172.766 23.457C172.716 23.9727 172.684 24.3594 172.67 24.6172Z" fill="white"/>
</svg>
