<?xml version="1.0"?>
<svg width="553.048" height="553.048" xmlns="http://www.w3.org/2000/svg" xmlns:svg="http://www.w3.org/2000/svg">
 <g>
  <title>Layer 1</title>
  <g id="svg_1">
   <g id="svg_2">
    <path fill="#ffffff" id="svg_3" d="m76.774,179.141c-9.529,0 -17.614,3.323 -24.26,9.969c-6.646,6.646 -9.97,14.621 -9.97,23.929l0,142.914c0,9.541 3.323,17.619 9.97,24.266c6.646,6.646 14.731,9.97 24.26,9.97c9.522,0 17.558,-3.323 24.101,-9.97c6.53,-6.646 9.804,-14.725 9.804,-24.266l0,-142.914c0,-9.309 -3.323,-17.283 -9.97,-23.929c-6.647,-6.646 -14.627,-9.969 -23.935,-9.969z"/>
    <path fill="#ffffff" id="svg_4" d="m351.972,50.847l23.598,-43.532c1.549,-2.882 0.998,-5.092 -1.658,-6.646c-2.883,-1.34 -5.098,-0.661 -6.646,1.989l-23.928,43.88c-21.055,-9.309 -43.324,-13.972 -66.807,-13.972c-23.488,0 -45.759,4.664 -66.806,13.972l-23.929,-43.88c-1.555,-2.65 -3.77,-3.323 -6.646,-1.989c-2.662,1.561 -3.213,3.764 -1.658,6.646l23.599,43.532c-23.929,12.203 -42.987,29.198 -57.167,51.022c-14.18,21.836 -21.273,45.698 -21.273,71.628l307.426,0c0,-25.924 -7.094,-49.787 -21.273,-71.628c-14.181,-21.824 -33.129,-38.819 -56.832,-51.022zm-136.433,63.318c-2.552,2.558 -5.6,3.831 -9.143,3.831c-3.55,0 -6.536,-1.273 -8.972,-3.831c-2.436,-2.546 -3.654,-5.582 -3.654,-9.137c0,-3.543 1.218,-6.585 3.654,-9.137c2.436,-2.546 5.429,-3.819 8.972,-3.819s6.591,1.273 9.143,3.819c2.546,2.558 3.825,5.594 3.825,9.137c-0.007,3.549 -1.285,6.591 -3.825,9.137zm140.086,0c-2.441,2.558 -5.434,3.831 -8.971,3.831c-3.551,0 -6.598,-1.273 -9.145,-3.831c-2.551,-2.546 -3.824,-5.582 -3.824,-9.137c0,-3.543 1.273,-6.585 3.824,-9.137c2.547,-2.546 5.594,-3.819 9.145,-3.819c3.543,0 6.529,1.273 8.971,3.819c2.438,2.558 3.654,5.594 3.654,9.137c0,3.549 -1.217,6.591 -3.654,9.137z"/>
    <path fill="#ffffff" id="svg_5" d="m123.971,406.804c0,10.202 3.543,18.838 10.63,25.925c7.093,7.087 15.729,10.63 25.924,10.63l24.596,0l0.337,75.454c0,9.528 3.323,17.619 9.969,24.266s14.627,9.97 23.929,9.97c9.523,0 17.613,-3.323 24.26,-9.97s9.97,-14.737 9.97,-24.266l0,-75.447l45.864,0l0,75.447c0,9.528 3.322,17.619 9.969,24.266s14.73,9.97 24.26,9.97c9.523,0 17.613,-3.323 24.26,-9.97s9.969,-14.737 9.969,-24.266l0,-75.447l24.928,0c9.969,0 18.494,-3.544 25.594,-10.631c7.086,-7.087 10.631,-15.723 10.631,-25.924l0,-221.361l-305.09,0l0,221.354z"/>
    <path fill="#ffffff" id="svg_6" d="m476.275,179.141c-9.309,0 -17.283,3.274 -23.93,9.804c-6.646,6.542 -9.969,14.578 -9.969,24.094l0,142.914c0,9.541 3.322,17.619 9.969,24.266s14.627,9.97 23.93,9.97c9.523,0 17.613,-3.323 24.26,-9.97s9.969,-14.725 9.969,-24.266l0,-142.914c0,-9.517 -3.322,-17.552 -9.969,-24.094c-6.647,-6.53 -14.737,-9.804 -24.26,-9.804z"/>
   </g>
  </g>
  <g id="svg_7"/>
  <g id="svg_8"/>
  <g id="svg_9"/>
  <g id="svg_10"/>
  <g id="svg_11"/>
  <g id="svg_12"/>
  <g id="svg_13"/>
  <g id="svg_14"/>
  <g id="svg_15"/>
  <g id="svg_16"/>
  <g id="svg_17"/>
  <g id="svg_18"/>
  <g id="svg_19"/>
  <g id="svg_20"/>
  <g id="svg_21"/>
 </g>
</svg>